<?xml version="1.0" standalone="no"?>
<!DOCTYPE svg PUBLIC "-//W3C//DTD SVG 20010904//EN"
 "http://www.w3.org/TR/2001/REC-SVG-20010904/DTD/svg10.dtd">
<svg version="1.0" xmlns="http://www.w3.org/2000/svg"
 width="289.000000pt" height="289.000000pt" viewBox="0 0 289.000000 289.000000"
 preserveAspectRatio="xMidYMid meet">

<g transform="translate(0.000000,289.000000) scale(0.100000,-0.100000)"
fill="#000000" stroke="none">
<path d="M0 1450 l0 -1440 1440 0 1440 0 0 1440 0 1440 -1440 0 -1440 0 0
-1440z m1474 1305 c3 -8 13 -15 23 -15 26 0 199 -80 268 -124 209 -133 345
-307 396 -504 13 -52 19 -109 19 -188 0 -62 4 -115 9 -118 4 -3 11 -53 14
-112 4 -79 1 -112 -9 -132 -22 -43 -18 -265 7 -382 38 -175 38 -175 -23 -255
-52 -69 -53 -71 -50 -132 2 -43 7 -63 16 -63 7 0 29 -18 49 -41 31 -34 36 -46
32 -76 -17 -136 -273 -406 -453 -479 -38 -15 -60 -20 -68 -13 -21 17 -25 58
-10 94 14 32 14 36 -4 45 -29 15 -35 64 -13 108 l18 37 -30 20 c-24 17 -31 29
-33 63 l-3 42 -74 -50 c-93 -63 -128 -66 -182 -16 -21 18 -68 50 -106 71 l-67
37 0 -41 c0 -38 -25 -81 -48 -81 -11 0 -6 -91 7 -123 14 -37 14 -48 -3 -73
-12 -16 -12 -28 -3 -62 13 -48 3 -75 -29 -80 -46 -6 -354 286 -423 401 -51 86
-62 126 -45 159 8 15 29 32 49 39 39 14 55 50 55 124 0 35 -6 47 -39 78 -64
61 -67 85 -31 231 46 185 44 366 -6 425 -26 31 -31 70 -11 90 7 7 13 41 14 79
2 91 46 319 82 433 41 128 91 209 175 283 38 33 89 80 113 104 62 61 122 96
242 143 59 22 113 47 121 55 19 18 46 18 54 -1z"/>
<path d="M1449 2732 c14 -27 15 -94 1 -72 -8 12 -10 11 -10 -7 0 -12 6 -24 13
-26 9 -4 8 -8 -3 -16 -13 -9 -12 -12 5 -25 20 -15 19 -15 -5 -16 -23 -1 -24
-2 -5 -11 l20 -9 -20 3 c-15 2 -20 10 -20 35 0 56 -13 35 -19 -30 -9 -110 -14
-562 -5 -546 5 10 18 13 39 10 25 -4 30 -9 28 -26 -4 -30 -40 -28 -49 4 -6 22
-7 23 -8 4 -2 -33 24 -49 55 -35 l26 11 -5 353 c-4 343 -9 406 -36 415 -10 3
-11 0 -2 -16z m-6 -219 c-7 -2 -19 -2 -25 0 -7 3 -2 5 12 5 14 0 19 -2 13 -5z
m26 -27 c-12 -10 -59 -15 -59 -6 0 5 14 10 32 10 17 0 29 -2 27 -4z m0 -76 c0
-39 -3 -60 -11 -60 -6 0 -8 3 -5 6 4 4 -1 14 -11 23 -10 9 -19 30 -20 48 -3
30 2 35 39 42 4 0 7 -26 8 -59z m-35 -76 c9 -3 13 -10 10 -16 -3 -5 1 -15 9
-21 11 -8 17 -36 19 -89 4 -74 4 -78 -16 -77 -21 0 -21 1 -1 9 18 8 17 9 -7 9
-34 1 -36 -12 -4 -27 19 -8 23 -18 22 -44 -1 -28 -5 -33 -25 -33 -14 0 -25 6
-27 13 -1 7 0 8 3 2 6 -13 43 -13 43 -1 0 6 -5 13 -12 17 -7 4 -8 3 -4 -4 4
-7 2 -12 -3 -12 -6 0 -11 9 -11 21 0 16 4 20 18 14 14 -5 15 -4 4 7 -11 11
-16 10 -26 -4 -10 -14 -13 -7 -14 46 -2 61 -1 63 21 59 21 -4 23 -1 23 42 1
40 -1 46 -17 42 -13 -4 -16 0 -13 16 2 12 -2 25 -9 29 -14 9 -5 10 17 2z m4
-75 c-10 -5 -18 -15 -18 -22 0 -8 3 -8 9 1 6 10 10 9 14 -7 6 -25 -20 -30 -29
-6 -9 22 3 45 23 45 17 -1 17 -1 1 -11z"/>
<path d="M1430 2430 c0 -10 7 -23 15 -30 12 -10 15 -10 15 4 0 9 -5 16 -11 16
-8 0 -8 4 0 13 8 10 7 14 -4 14 -8 0 -15 -8 -15 -17z"/>
<path d="M1438 2163 c7 -3 16 -2 19 1 4 3 -2 6 -13 5 -11 0 -14 -3 -6 -6z"/>
<path d="M1427 2710 c-4 -14 -6 -38 -6 -55 1 -27 2 -26 10 10 11 45 7 85 -4
45z"/>
<path d="M1496 2712 c4 -9 9 -163 11 -342 2 -179 6 -334 8 -346 4 -19 14 -22
85 -27 44 -4 89 -11 100 -17 22 -12 25 -1 35 135 9 124 42 328 63 390 l20 57
-52 33 c-64 40 -132 75 -214 109 -54 22 -63 23 -56 8z"/>
<path d="M1318 2690 c-92 -34 -190 -85 -214 -111 -16 -17 -15 -22 6 -71 33
-77 50 -204 50 -375 0 -84 2 -153 4 -153 2 0 20 7 39 15 20 8 66 15 102 15
l65 0 1 53 c2 189 20 588 27 620 6 20 7 37 3 37 -3 -1 -41 -14 -83 -30z"/>
<path d="M1815 2516 c-29 -69 -81 -436 -73 -521 3 -35 8 -42 40 -58 21 -9 109
-32 195 -51 87 -18 166 -37 176 -41 15 -6 17 0 17 69 0 227 -108 447 -294 600
l-46 38 -15 -36z"/>
<path d="M987 2472 c-114 -98 -161 -172 -210 -327 -24 -78 -57 -245 -57 -291
0 -22 1 -22 33 -9 42 17 218 62 277 70 25 3 61 15 79 26 l34 20 -6 192 c-5
204 -17 288 -48 349 -11 21 -20 38 -22 37 -1 0 -37 -30 -80 -67z"/>
<path d="M1432 1998 c2 -5 8 -9 13 -9 5 0 11 4 13 9 1 5 -4 9 -13 9 -9 0 -14
-4 -13 -9z"/>
<path d="M1178 1955 c-30 -30 -104 -64 -138 -65 -46 0 -241 -49 -294 -73 l-52
-24 4 -59 c2 -41 -1 -68 -12 -88 -15 -29 -8 -66 13 -66 21 0 156 62 181 84 61
51 124 58 367 42 l132 -9 4 49 3 49 2 -48 2 -48 42 3 c33 2 45 8 56 28 l14 25
-6 -26 -6 -26 193 0 c165 1 303 -10 369 -29 9 -3 21 -18 27 -34 10 -29 30 -42
86 -56 l24 -6 -3 99 c-2 55 -8 109 -14 120 -15 28 -47 39 -197 68 -153 30
-215 48 -273 82 -57 32 -182 45 -182 19 0 -10 -4 -15 -9 -11 -5 3 -20 0 -34
-6 -16 -7 -35 -8 -60 -1 l-36 10 -4 -61 -3 -62 -2 73 -2 72 -84 0 c-75 0 -86
-2 -108 -25z m329 -132 c-2 -21 -4 -6 -4 32 0 39 2 55 4 38 2 -18 2 -50 0 -70z
m-438 -27 c9 -10 8 -16 -4 -26 -17 -14 -45 -7 -45 13 0 29 30 37 49 13z m839
-25 c-2 -9 -11 -17 -21 -19 -21 -4 -35 27 -17 38 19 12 42 0 38 -19z m-1108
-50 c0 -31 -21 -46 -39 -28 -12 12 -15 40 -4 50 3 4 15 7 25 7 13 0 18 -8 18
-29z m1349 20 c19 -12 6 -41 -19 -41 -25 0 -38 29 -19 41 8 5 16 9 19 9 3 0
11 -4 19 -9z"/>
<path d="M1300 1673 c0 -5 7 -47 15 -96 25 -156 37 -445 30 -737 l-7 -276 41
-37 c52 -47 90 -49 131 -9 l28 28 5 485 c5 439 10 536 32 622 l7 27 -141 0
c-78 0 -141 -3 -141 -7z m174 -339 c9 -22 -1 -34 -29 -34 -23 0 -40 24 -29 41
9 15 51 10 58 -7z m12 -335 c7 -12 -13 -29 -36 -29 -23 0 -43 17 -36 29 4 6
20 11 36 11 16 0 32 -5 36 -11z m-8 -277 c4 -28 -24 -40 -45 -19 -14 13 -14
19 -3 32 18 22 44 15 48 -13z"/>
<path d="M1285 1590 c11 -203 27 -551 34 -750 l8 -215 1 345 c2 344 -7 516
-33 640 l-14 65 4 -85z"/>
<path d="M1581 1618 c-20 -92 -31 -326 -31 -680 0 -272 3 -348 13 -348 9 0 12
89 12 413 0 379 7 515 31 635 4 20 2 32 -4 32 -6 0 -15 -23 -21 -52z"/>
<path d="M833 1610 c-13 -5 -23 -11 -23 -14 0 -2 33 -30 73 -62 84 -67 111
-91 87 -79 -26 14 -93 67 -132 103 -37 35 -37 35 -75 20 l-38 -14 5 -50 c3
-27 5 -101 4 -164 0 -92 -6 -134 -27 -211 -30 -108 -32 -127 -15 -163 10 -23
187 -182 303 -273 22 -17 107 -66 189 -107 82 -42 169 -93 194 -113 26 -22 55
-36 71 -36 16 0 58 21 101 50 41 27 98 58 125 69 92 34 245 130 336 210 88 76
209 221 209 249 0 45 -14 40 -91 -37 -109 -107 -254 -226 -328 -268 -34 -19
-85 -52 -113 -73 -29 -22 -70 -48 -91 -58 -21 -11 -42 -30 -47 -43 -10 -27
-54 -64 -86 -72 -31 -8 -89 22 -127 66 -18 21 -93 79 -167 131 -162 111 -279
199 -339 254 -52 47 -101 120 -101 149 0 14 7 6 20 -22 35 -77 167 -191 423
-367 70 -48 130 -85 133 -82 6 6 -16 728 -23 739 -8 14 -97 56 -184 88 -45 16
-100 41 -124 54 -52 31 -105 90 -105 116 0 22 -4 23 -37 10z m-48 -136 c4 -22
3 -24 -3 -9 l-9 20 -5 -20 c-3 -11 -5 -5 -5 15 0 19 -3 46 -7 60 -5 19 -3 17
8 -6 8 -17 17 -44 21 -60z m-8 -111 c-2 -16 -4 -3 -4 27 0 30 2 43 4 28 2 -16
2 -40 0 -55z m420 -150 c-2 -32 -3 -6 -3 57 0 63 1 89 3 58 2 -32 2 -84 0
-115z m-59 62 c-3 -3 -9 2 -12 12 -6 14 -5 15 5 6 7 -7 10 -15 7 -18z m9 -37
c-3 -8 -6 -5 -6 6 -1 11 2 17 5 13 3 -3 4 -12 1 -19z m10 -50 c-3 -7 -5 -2 -5
12 0 14 2 19 5 13 2 -7 2 -19 0 -25z m-380 -20 c-3 -7 -5 -2 -5 12 0 14 2 19
5 13 2 -7 2 -19 0 -25z m390 -45 c-3 -10 -5 -2 -5 17 0 19 2 27 5 18 2 -10 2
-26 0 -35z m23 -105 c0 -45 -2 -79 -4 -77 -10 11 -16 159 -6 159 6 0 10 -32
10 -82z m7 -165 c-2 -16 -4 -5 -4 22 0 28 2 40 4 28 2 -13 2 -35 0 -50z m10
-145 c-2 -18 -4 -4 -4 32 0 36 2 50 4 33 2 -18 2 -48 0 -65z"/>
<path d="M2009 1564 c-36 -39 -96 -71 -175 -92 -75 -21 -140 -50 -114 -52 9
-1 6 -5 -8 -10 -12 -5 -28 -7 -35 -4 -14 5 -67 -45 -71 -67 -2 -8 -8 -27 -14
-42 -13 -31 -15 -534 -3 -639 l6 -57 42 27 c38 24 43 32 44 67 l2 40 6 -35 c4
-23 9 -31 14 -23 5 7 32 24 60 38 68 32 239 170 350 282 l88 90 -18 84 c-12
60 -18 128 -18 236 l0 153 -38 15 c-52 21 -61 19 -78 -14 -8 -16 -41 -50 -74
-76 -50 -40 -55 -42 -27 -13 25 26 30 37 20 42 -7 3 -4 4 8 1 14 -4 28 4 45
22 17 20 18 23 3 10 -34 -28 -40 -19 -9 13 16 17 26 30 24 30 -3 0 -16 -12
-30 -26z m138 -76 c-2 -13 -4 -5 -4 17 -1 22 1 32 4 23 2 -10 2 -28 0 -40z
m-187 17 c0 -7 -91 -51 -120 -59 -14 -3 7 9 45 28 82 40 75 37 75 31z m177
-77 c-3 -8 -6 -5 -6 6 -1 11 2 17 5 13 3 -3 4 -12 1 -19z m-330 6 c-3 -3 -12
-4 -19 -1 -8 3 -5 6 6 6 11 1 17 -2 13 -5z m-40 -10 c-3 -3 -12 -4 -19 -1 -8
3 -5 6 6 6 11 1 17 -2 13 -5z m-87 -27 c0 -2 -16 -19 -37 -38 -37 -35 -37 -23
0 19 18 19 37 29 37 19z m17 -84 c-3 -10 -5 -2 -5 17 0 19 2 27 5 18 2 -10 2
-26 0 -35z m0 -70 c-3 -10 -5 -2 -5 17 0 19 2 27 5 18 2 -10 2 -26 0 -35z
m453 17 c0 -16 -2 -30 -4 -30 -2 0 -6 14 -8 30 -3 17 -1 30 4 30 4 0 8 -13 8
-30z m7 -72 c-3 -8 -6 -5 -6 6 -1 11 2 17 5 13 3 -3 4 -12 1 -19z m-470 -240
c-1 -46 -3 -9 -3 82 0 91 2 128 3 83 2 -46 2 -120 0 -165z"/>
<path d="M925 1535 c48 -44 83 -62 200 -105 50 -18 96 -37 103 -43 7 -5 15 -7
18 -4 7 6 -78 57 -95 57 -22 0 -167 66 -217 99 l-49 32 40 -36z"/>
<path d="M770 818 c0 -71 38 -136 121 -209 41 -35 101 -81 134 -101 108 -65
177 -49 161 36 -5 27 -18 38 -101 84 -52 29 -126 80 -165 113 -63 54 -70 58
-70 37 1 -33 33 -99 62 -126 13 -12 51 -38 83 -57 45 -28 61 -33 68 -23 6 9 7
8 3 -5 -3 -10 -6 -24 -6 -30 0 -7 -5 -4 -11 5 -5 10 -41 36 -79 58 -76 45
-116 97 -127 167 -5 35 -46 93 -65 93 -4 0 -8 -19 -8 -42z"/>
<path d="M2030 733 c-41 -59 -98 -132 -127 -162 -44 -48 -52 -53 -59 -38 -4
11 -1 23 6 30 10 10 11 7 5 -13 -7 -22 -6 -23 9 -11 20 17 116 136 116 145 0
3 -28 -16 -63 -43 -73 -55 -138 -88 -187 -96 -28 -5 -25 -2 15 12 61 22 125
59 185 106 24 20 48 33 54 30 5 -4 6 -1 1 7 -6 9 -4 11 6 5 8 -5 11 -4 6 0 -4
5 3 19 15 32 12 13 17 23 12 23 -6 0 -23 -14 -40 -31 -29 -31 -178 -124 -251
-157 -53 -23 -93 -57 -93 -77 0 -24 18 -53 41 -65 17 -10 26 -6 59 24 40 36
79 60 86 54 2 -3 -17 -19 -41 -36 -56 -39 -105 -114 -105 -159 0 -18 5 -33 11
-33 18 0 195 145 292 239 118 115 128 133 135 237 2 46 1 84 -4 84 -5 0 -43
-49 -84 -107z"/>
<path d="M766 720 c16 -91 82 -183 159 -223 17 -9 25 -16 19 -17 -18 0 -87 49
-116 83 -15 18 -28 27 -28 21 0 -18 104 -109 163 -142 75 -43 158 -75 169 -64
16 16 -3 63 -31 75 -54 23 -148 83 -211 136 -69 57 -82 73 -112 130 l-19 36 7
-35z"/>
<path d="M2126 685 c-13 -68 -120 -182 -326 -348 l-35 -28 65 32 c35 17 82 42
105 56 35 21 37 21 15 2 -14 -12 -55 -36 -91 -54 -112 -57 -159 -109 -159
-175 0 -29 1 -30 23 -19 58 31 182 133 278 228 83 83 113 122 142 180 20 40
37 68 37 62 0 -21 -47 -105 -95 -168 -53 -71 -153 -163 -275 -253 -102 -74
-102 -74 -70 -65 122 35 375 267 449 412 22 44 29 113 11 113 -5 0 -10 -6 -11
-12 0 -7 -5 2 -10 19 -5 18 -18 37 -28 43 -16 8 -20 5 -25 -25z"/>
<path d="M680 680 c-25 -25 -25 -43 0 -97 45 -100 171 -243 333 -379 88 -74
119 -88 131 -58 8 21 8 26 -3 20 -4 -3 -6 5 -4 18 3 13 0 27 -6 30 -7 5 -8 1
-4 -11 3 -10 3 -15 -1 -11 -4 3 -9 18 -10 32 -2 18 2 27 15 31 23 8 25 52 4
82 -8 12 -32 27 -53 33 -160 52 -314 187 -337 298 -8 38 -34 43 -65 12z m24
-93 c-2 -7 10 -35 28 -62 41 -64 323 -345 368 -367 19 -10 27 -18 18 -18 -18
0 -89 57 -195 157 -146 137 -268 303 -223 303 5 0 7 -6 4 -13z"/>
<path d="M757 675 c7 -35 32 -89 39 -82 2 2 -7 28 -21 58 -16 35 -22 43 -18
24z"/>
</g>
</svg>
